<?xml version="1.0" encoding="utf-8"?>
<!-- Generator: Adobe Illustrator 16.0.0, SVG Export Plug-In . SVG Version: 6.00 Build 0)  -->
<!DOCTYPE svg PUBLIC "-//W3C//DTD SVG 1.1//EN" "http://www.w3.org/Graphics/SVG/1.1/DTD/svg11.dtd">
<svg version="1.1" id="Layer_1" xmlns="http://www.w3.org/2000/svg" xmlns:xlink="http://www.w3.org/1999/xlink" x="0px" y="0px"
	 width="35px" height="35px" viewBox="0 0 35 35" enable-background="new 0 0 35 35" xml:space="preserve">
<path fill="#DC061D" d="M33.155,17.394l-2.869,3.71l-2.414-4.402h2.303C29.671,3.495,17.173,0.073,17.173,0.073l0.022,1.61
	l4.292,3.323L17.187,7.19l0.009-2.288C3.583,5.407,0,17.464,0,17.464l2.065-0.082l2.666-3.598l2.011,4.317H4.264
	C4.552,31.453,17.18,34.927,17.18,34.927l0.007-2.094l-4.042-3.061l4.067-2.092l0.016,2.219C31.558,29.177,35,17.394,35,17.394
	H33.155z M17.318,26.72c-5.11,0-9.253-4.117-9.253-9.195c0-5.08,4.143-9.198,9.253-9.198c5.109,0,9.253,4.118,9.253,9.198
	C26.571,22.603,22.428,26.72,17.318,26.72"/>
<rect fill="none" width="35" height="35"/>
</svg>
